<svg viewBox="0 0 64 64" xmlns="http://www.w3.org/2000/svg">
  <rect width="64" height="64" fill="none"/>
  <circle cx="32" cy="32" r="24" fill="#000"/>
  <path d="M32 12C20.95 12 12 20.95 12 32C12 41.16 17.86 48.87 25.64 51.64C26.64 51.82 27.16 51.16 27.16 50.58V47.86C21.06 49.04 19.84 44.86 19.84 44.86C18.84 42.08 17.34 41.42 17.34 41.42C15.34 40 17.54 40.02 17.54 40.02C19.84 40.2 20.86 42.3 20.86 42.3C22.84 45.82 25.96 44.96 27.26 44.38C27.44 43.06 27.98 42.2 28.52 41.62C23.92 41.04 19.06 39.22 19.06 31.48C19.06 28.84 20.02 26.66 20.86 24.92C20.66 24.34 19.98 21.88 21.06 18.54C21.06 18.54 23.04 17.94 27.16 20.54C28.94 20.08 30.82 19.86 32.7 19.84C34.58 19.86 36.46 20.08 38.24 20.54C42.36 17.94 44.34 18.54 44.34 18.54C45.42 21.88 44.74 24.34 44.54 24.92C45.38 26.66 46.34 28.84 46.34 31.48C46.34 39.22 41.48 41.02 36.86 41.62C37.52 42.32 38.12 43.66 38.12 45.7V50.58C38.12 51.16 38.64 51.82 39.68 51.62C47.42 48.86 53.28 41.14 53.28 32C53.28 20.95 44.33 12 32 12Z" fill="#FFF"/>
</svg>
