<svg viewBox="0 0 64 64" xmlns="http://www.w3.org/2000/svg">
  <rect width="64" height="64" fill="none"/>
  <path d="M32 12C20 12 12 18 10 26C14 22 18 20 24 21C26.5 21.5 28 23 30 25C32.5 27.5 35 30 40 30C48 30 54 26 56 18C52 22 48 24 42 23C39.5 22.5 38 21 36 19C33.5 16.5 31 14 26 14C18 14 12 18 10 26M10 38C18 38 24 34 26 26C30 30 34 32 40 31C42.5 30.5 44 29 46 27C48.5 24.5 51 22 56 22C64 22 72 26 74 34C70 30 66 28 60 29C57.5 29.5 56 31 54 33C51.5 35.5 49 38 44 38C36 38 30 42 28 50Z" fill="#38BDF8"/>
</svg>
